<?xml version="1.0" standalone="no"?>
<!DOCTYPE svg PUBLIC "-//W3C//DTD SVG 20010904//EN"
 "http://www.w3.org/TR/2001/REC-SVG-20010904/DTD/svg10.dtd">
<svg version="1.0" xmlns="http://www.w3.org/2000/svg"
 width="35.000000pt" height="40.000000pt" viewBox="0 0 35.000000 40.000000"
 preserveAspectRatio="xMidYMid meet">

<g transform="translate(0.000000,40.000000) scale(0.100000,-0.100000)"
fill="#000000" stroke="none">
<path d="M75 377 c-44 -11 -50 -16 -53 -39 l-3 -28 42 15 c23 8 52 15 65 15
21 0 24 -5 24 -35 0 -31 3 -35 25 -35 22 0 25 4 25 36 l0 37 43 -6 c23 -3 53
-9 65 -13 21 -6 23 -4 20 17 -2 19 -12 26 -48 36 -57 14 -141 14 -205 0z"/>
<path d="M220 284 l0 -34 -51 0 c-51 0 -51 0 -47 30 4 26 1 30 -19 30 -22 0
-23 -3 -23 -75 0 -63 3 -76 19 -85 27 -14 26 -14 26 23 0 31 1 32 45 32 43 0
45 -1 48 -33 3 -28 6 -31 23 -22 16 9 19 22 19 84 0 65 -2 74 -20 79 -17 4
-20 0 -20 -29z"/>
<path d="M285 290 c-4 -6 -5 -40 -4 -77 2 -65 1 -67 -31 -95 -19 -15 -38 -28
-42 -28 -4 0 -8 19 -10 43 -2 34 -7 42 -23 42 -16 0 -21 -8 -23 -42 -2 -24 -5
-43 -8 -43 -3 0 -21 12 -40 26 -33 26 -34 28 -34 101 0 71 -1 74 -23 71 -20
-3 -22 -9 -25 -84 l-3 -81 73 -53 c40 -29 78 -53 83 -53 6 0 43 23 83 52 l72
53 0 78 c0 68 -3 81 -19 90 -14 7 -22 7 -26 0z"/>
</g>
</svg>
